<mxfile host="app.diagrams.net" modified="2024-03-27T04:13:10.420Z" agent="Mozilla/5.0 (Macintosh; Intel Mac OS X 10_15_7) AppleWebKit/605.1.15 (KHTML, like Gecko) Version/15.4 Safari/605.1.15" etag="rBSJQCNd4vD_mUWjWTty" version="24.2.0" type="github">
  <diagram name="Page-1" id="IzMSrbNCFbdiZwlMkfzb">
    <mxGraphModel dx="770" dy="520" grid="1" gridSize="10" guides="1" tooltips="1" connect="1" arrows="1" fold="1" page="1" pageScale="1" pageWidth="1100" pageHeight="850" math="0" shadow="0">
      <root>
        <mxCell id="0" />
        <mxCell id="1" parent="0" />
        <mxCell id="4q3o8-HtlDWTgSXNqdeB-1" style="edgeStyle=orthogonalEdgeStyle;rounded=0;orthogonalLoop=1;jettySize=auto;html=1;endArrow=none;endFill=0;" edge="1" parent="1" source="4q3o8-HtlDWTgSXNqdeB-2">
          <mxGeometry relative="1" as="geometry">
            <mxPoint x="510" y="570" as="targetPoint" />
          </mxGeometry>
        </mxCell>
        <mxCell id="4q3o8-HtlDWTgSXNqdeB-2" value="" style="shape=stencil(rZXhbsIgEMefhq+Gcpu6j6Zz74EVVyKDBjqdb++1tHWz0swCaZrc/Xs/esflIJC7kleCMFoSeCeMZZTiG+3znc1dJYraO0/cSr5TwiuutuYoznJfdwypS2Fl3aiwJXSD3zQP5IXRGiHSaPdH+aUjjEuNsfTHw7rtL521yLxN2MdsBItHQDziJR7xGo9YxiNW8Yh1POLteUSWoJwLwJWgRfvNb5BZf7PElaDbH2U1o8DjrNapsgp0DOToCY0ZyHe8OH5a863346igdjBWPBAGWSrlR+BEXhVvhuNI6OUvcxLB1p6qWA9QUgcBwwh/BjEEdZBVAgb8i1Eo46ZKif5ANfEyC51DGzY6yNbrL8DWcQU=);whiteSpace=wrap;html=1;" vertex="1" parent="1">
          <mxGeometry x="430" y="440" width="60" height="100" as="geometry" />
        </mxCell>
        <mxCell id="4q3o8-HtlDWTgSXNqdeB-3" style="edgeStyle=orthogonalEdgeStyle;rounded=0;orthogonalLoop=1;jettySize=auto;html=1;exitX=0;exitY=0.3;exitDx=0;exitDy=0;exitPerimeter=0;endArrow=none;endFill=0;" edge="1" parent="1" source="4q3o8-HtlDWTgSXNqdeB-4">
          <mxGeometry relative="1" as="geometry">
            <mxPoint x="220" y="470" as="targetPoint" />
          </mxGeometry>
        </mxCell>
        <mxCell id="4q3o8-HtlDWTgSXNqdeB-4" value="" style="shape=stencil(rZXhbsIgEMefhq+Gcpu6j6Zz74EVVyKDBjqdb++1tHWz0swCaZrc/Xs/esflIJC7kleCMFoSeCeMZZTiG+3znc1dJYraO0/cSr5TwiuutuYoznJfdwypS2Fl3aiwJXSD3zQP5IXRGiHSaPdH+aUjjEuNsfTHw7rtL521yLxN2MdsBItHQDziJR7xGo9YxiNW8Yh1POLteUSWoJwLwJWgRfvNb5BZf7PElaDbH2U1o8DjrNapsgp0DOToCY0ZyHe8OH5a863346igdjBWPBAGWSrlR+BEXhVvhuNI6OUvcxLB1p6qWA9QUgcBwwh/BjEEdZBVAgb8i1Eo46ZKif5ANfEyC51DGzY6yNbrL8DWcQU=);whiteSpace=wrap;html=1;" vertex="1" parent="1">
          <mxGeometry x="250" y="440" width="60" height="100" as="geometry" />
        </mxCell>
        <mxCell id="4q3o8-HtlDWTgSXNqdeB-5" style="edgeStyle=orthogonalEdgeStyle;rounded=0;orthogonalLoop=1;jettySize=auto;html=1;exitX=0;exitY=0.666;exitDx=0;exitDy=0;exitPerimeter=0;endArrow=none;endFill=0;" edge="1" parent="1" source="4q3o8-HtlDWTgSXNqdeB-9">
          <mxGeometry relative="1" as="geometry">
            <mxPoint x="240.04761904761904" y="200" as="targetPoint" />
          </mxGeometry>
        </mxCell>
        <mxCell id="4q3o8-HtlDWTgSXNqdeB-6" value="&lt;font style=&quot;font-size: 20px;&quot;&gt;a&lt;sub&gt;2&lt;/sub&gt;&lt;/font&gt;" style="edgeLabel;html=1;align=center;verticalAlign=middle;resizable=0;points=[];fontSize=20;labelBackgroundColor=none;" vertex="1" connectable="0" parent="4q3o8-HtlDWTgSXNqdeB-5">
          <mxGeometry relative="1" as="geometry">
            <mxPoint x="-3" y="-34" as="offset" />
          </mxGeometry>
        </mxCell>
        <mxCell id="4q3o8-HtlDWTgSXNqdeB-7" style="edgeStyle=orthogonalEdgeStyle;rounded=0;orthogonalLoop=1;jettySize=auto;html=1;exitX=0;exitY=0.333;exitDx=0;exitDy=0;exitPerimeter=0;endArrow=none;endFill=0;" edge="1" parent="1" source="4q3o8-HtlDWTgSXNqdeB-9">
          <mxGeometry relative="1" as="geometry">
            <mxPoint x="260.04761904761904" y="200" as="targetPoint" />
          </mxGeometry>
        </mxCell>
        <mxCell id="4q3o8-HtlDWTgSXNqdeB-8" value="a&lt;sub&gt;1&lt;/sub&gt;" style="edgeLabel;html=1;align=center;verticalAlign=middle;resizable=0;points=[];fontSize=20;rotation=0;labelBackgroundColor=none;" vertex="1" connectable="0" parent="4q3o8-HtlDWTgSXNqdeB-7">
          <mxGeometry relative="1" as="geometry">
            <mxPoint x="3" y="-34" as="offset" />
          </mxGeometry>
        </mxCell>
        <mxCell id="4q3o8-HtlDWTgSXNqdeB-9" value="" style="shape=stencil(rZRRb4MgEMc/yx547KJcNN3j5rbvQZFOUgcGbGu//U6RpaI0nV1iFO7P/bg7TggUtmKNIDSpCLwTStMkwTfOz8Gc2Ubw1hlPzEi2q4VTbGv0QZxl2Y4MqSphZNur8EGSV1zTP1BwrRRCpFZ2olzpCGNSoW/SOdi4/WWcPad57iyEfq6GAMDjkMyX5hFI/h/pbNekk4bpLCOgQEvs4KDYMX74MvqoyrlXVNtrIxYELz9tNjh40+UFPzheWrOXde0a70baDetbciZ4+VufRLSotwrqAbVUV4BsBYEfjYshdU4vnpFOIB0NZBr8nR0EMUCw4C+JTPO4E8FrbeNnsVzy7XSnbEWsv9HdxRjaMtIVeBXG+mlwmzXtYHXX52D4AQ==);whiteSpace=wrap;html=1;fontSize=10;direction=south;" vertex="1" parent="1">
          <mxGeometry x="220" y="240" width="60" height="60" as="geometry" />
        </mxCell>
        <mxCell id="4q3o8-HtlDWTgSXNqdeB-10" style="edgeStyle=orthogonalEdgeStyle;rounded=0;orthogonalLoop=1;jettySize=auto;html=1;exitX=0.14;exitY=0.666;exitDx=0;exitDy=0;exitPerimeter=0;endArrow=none;endFill=0;" edge="1" parent="1" source="4q3o8-HtlDWTgSXNqdeB-14">
          <mxGeometry relative="1" as="geometry">
            <mxPoint x="190" y="200" as="targetPoint" />
            <Array as="points">
              <mxPoint x="210" y="320" />
              <mxPoint x="190" y="320" />
              <mxPoint x="190" y="200" />
            </Array>
          </mxGeometry>
        </mxCell>
        <mxCell id="4q3o8-HtlDWTgSXNqdeB-11" value="&lt;div style=&quot;font-size: 20px;&quot;&gt;a&lt;sub&gt;3&lt;/sub&gt;&lt;/div&gt;" style="edgeLabel;html=1;align=center;verticalAlign=middle;resizable=0;points=[];fontSize=20;labelBackgroundColor=none;" vertex="1" connectable="0" parent="4q3o8-HtlDWTgSXNqdeB-10">
          <mxGeometry relative="1" as="geometry">
            <mxPoint y="-98" as="offset" />
          </mxGeometry>
        </mxCell>
        <mxCell id="4q3o8-HtlDWTgSXNqdeB-12" style="edgeStyle=orthogonalEdgeStyle;rounded=0;orthogonalLoop=1;jettySize=auto;html=1;endArrow=none;endFill=0;" edge="1" parent="1" source="4q3o8-HtlDWTgSXNqdeB-14">
          <mxGeometry relative="1" as="geometry">
            <mxPoint x="170" y="650" as="targetPoint" />
            <Array as="points">
              <mxPoint x="220" y="420" />
              <mxPoint x="170" y="420" />
            </Array>
          </mxGeometry>
        </mxCell>
        <mxCell id="4q3o8-HtlDWTgSXNqdeB-13" value="&lt;font style=&quot;font-size: 20px;&quot;&gt;d&lt;sub&gt;3&lt;/sub&gt;&lt;/font&gt;" style="edgeLabel;html=1;align=center;verticalAlign=middle;resizable=0;points=[];labelBackgroundColor=none;" vertex="1" connectable="0" parent="4q3o8-HtlDWTgSXNqdeB-12">
          <mxGeometry x="0.9746" relative="1" as="geometry">
            <mxPoint y="17" as="offset" />
          </mxGeometry>
        </mxCell>
        <mxCell id="4q3o8-HtlDWTgSXNqdeB-14" value="" style="shape=stencil(vZXdcoMgEIWfpRdcpgNsY71tbfseREllYsFBk5i3L0qwgj+1yUxnHJU98rlnYRVBUuWs5IjiHMEbopRgbM5mfA7GrCp5WtvgiWnBdgW3SlVrdeBnkdVXhpA516JuVXhH+MU80x6QpEpKAxFKVp4y0A2MCWnm4sbC8CMhkX3RpY9E1wiiH38BPeEABAA3gbYhaOvKdG9G0Y3WRjWKb7FGQlvTCEhMZG4xIdmx9PCp1VFm41mz2l5pPiE4+WGzMTevKruYi7mfemYvisJuxgXbJWu36Uhw8pc68UFh/XosFdQBCiEHgHCjrCGkR21zIHbSs2MQD9JQO4ydTP1XNhDo4OvLSdxdh9AFXXZBAxf9d8fZCFyQ5YZbtRorGb+tx0+q/7gisW9lHcKvRp/3KkbXvTPNY/4ic23XTRv1dhe1f54u8A0=);whiteSpace=wrap;html=1;fontSize=10;direction=south;" vertex="1" parent="1">
          <mxGeometry x="190" y="340" width="60" height="60" as="geometry" />
        </mxCell>
        <mxCell id="4q3o8-HtlDWTgSXNqdeB-15" style="edgeStyle=orthogonalEdgeStyle;rounded=0;orthogonalLoop=1;jettySize=auto;html=1;entryX=0.5;entryY=0.15;entryDx=0;entryDy=0;entryPerimeter=0;endArrow=none;endFill=0;" edge="1" parent="1" source="4q3o8-HtlDWTgSXNqdeB-14" target="4q3o8-HtlDWTgSXNqdeB-4">
          <mxGeometry relative="1" as="geometry" />
        </mxCell>
        <mxCell id="4q3o8-HtlDWTgSXNqdeB-16" style="edgeStyle=orthogonalEdgeStyle;rounded=0;orthogonalLoop=1;jettySize=auto;html=1;entryX=0.14;entryY=0.333;entryDx=0;entryDy=0;entryPerimeter=0;endArrow=none;endFill=0;" edge="1" parent="1" source="4q3o8-HtlDWTgSXNqdeB-9" target="4q3o8-HtlDWTgSXNqdeB-14">
          <mxGeometry relative="1" as="geometry" />
        </mxCell>
        <mxCell id="4q3o8-HtlDWTgSXNqdeB-17" style="edgeStyle=orthogonalEdgeStyle;rounded=0;orthogonalLoop=1;jettySize=auto;html=1;exitX=0;exitY=0.666;exitDx=0;exitDy=0;exitPerimeter=0;endArrow=none;endFill=0;" edge="1" parent="1" source="4q3o8-HtlDWTgSXNqdeB-21">
          <mxGeometry relative="1" as="geometry">
            <mxPoint x="420.04761904761904" y="200" as="targetPoint" />
          </mxGeometry>
        </mxCell>
        <mxCell id="4q3o8-HtlDWTgSXNqdeB-18" value="a&lt;sub&gt;1&lt;/sub&gt;" style="edgeLabel;html=1;align=center;verticalAlign=middle;resizable=0;points=[];fontSize=20;labelBackgroundColor=none;" vertex="1" connectable="0" parent="4q3o8-HtlDWTgSXNqdeB-17">
          <mxGeometry relative="1" as="geometry">
            <mxPoint x="-3" y="-34" as="offset" />
          </mxGeometry>
        </mxCell>
        <mxCell id="4q3o8-HtlDWTgSXNqdeB-19" style="edgeStyle=orthogonalEdgeStyle;rounded=0;orthogonalLoop=1;jettySize=auto;html=1;exitX=0;exitY=0.333;exitDx=0;exitDy=0;exitPerimeter=0;endArrow=none;endFill=0;" edge="1" parent="1" source="4q3o8-HtlDWTgSXNqdeB-21">
          <mxGeometry relative="1" as="geometry">
            <mxPoint x="440.04761904761904" y="200" as="targetPoint" />
          </mxGeometry>
        </mxCell>
        <mxCell id="4q3o8-HtlDWTgSXNqdeB-20" value="a&lt;sub&gt;0&lt;/sub&gt;" style="edgeLabel;html=1;align=center;verticalAlign=middle;resizable=0;points=[];fontSize=20;labelBackgroundColor=none;" vertex="1" connectable="0" parent="4q3o8-HtlDWTgSXNqdeB-19">
          <mxGeometry relative="1" as="geometry">
            <mxPoint x="3" y="-34" as="offset" />
          </mxGeometry>
        </mxCell>
        <mxCell id="4q3o8-HtlDWTgSXNqdeB-21" value="" style="shape=stencil(rZRRb4MgEMc/yx547KJcNN3j5rbvQZFOUgcGbGu//U6RpaI0nV1iFO7P/bg7TggUtmKNIDSpCLwTStMkwTfOz8Gc2Ubw1hlPzEi2q4VTbGv0QZxl2Y4MqSphZNur8EGSV1zTP1BwrRRCpFZ2olzpCGNSoW/SOdi4/WWcPad57iyEfq6GAMDjkMyX5hFI/h/pbNekk4bpLCOgQEvs4KDYMX74MvqoyrlXVNtrIxYELz9tNjh40+UFPzheWrOXde0a70baDetbciZ4+VufRLSotwrqAbVUV4BsBYEfjYshdU4vnpFOIB0NZBr8nR0EMUCw4C+JTPO4E8FrbeNnsVzy7XSnbEWsv9HdxRjaMtIVeBXG+mlwmzXtYHXX52D4AQ==);whiteSpace=wrap;html=1;fontSize=10;direction=south;" vertex="1" parent="1">
          <mxGeometry x="400" y="240" width="60" height="60" as="geometry" />
        </mxCell>
        <mxCell id="4q3o8-HtlDWTgSXNqdeB-22" style="edgeStyle=orthogonalEdgeStyle;rounded=0;orthogonalLoop=1;jettySize=auto;html=1;exitX=0.14;exitY=0.666;exitDx=0;exitDy=0;exitPerimeter=0;endArrow=none;endFill=0;" edge="1" parent="1" source="4q3o8-HtlDWTgSXNqdeB-24">
          <mxGeometry relative="1" as="geometry">
            <mxPoint x="370" y="200" as="targetPoint" />
            <Array as="points">
              <mxPoint x="390" y="320" />
              <mxPoint x="370" y="320" />
              <mxPoint x="370" y="200" />
            </Array>
          </mxGeometry>
        </mxCell>
        <mxCell id="4q3o8-HtlDWTgSXNqdeB-23" value="&lt;div style=&quot;font-size: 20px;&quot;&gt;a&lt;sub&gt;2&lt;/sub&gt;&lt;/div&gt;" style="edgeLabel;html=1;align=center;verticalAlign=middle;resizable=0;points=[];fontSize=20;labelBackgroundColor=none;" vertex="1" connectable="0" parent="4q3o8-HtlDWTgSXNqdeB-22">
          <mxGeometry relative="1" as="geometry">
            <mxPoint y="-98" as="offset" />
          </mxGeometry>
        </mxCell>
        <mxCell id="4q3o8-HtlDWTgSXNqdeB-24" value="" style="shape=stencil(vZXdcoMgEIWfpRdcpgNsY71tbfseREllYsFBk5i3L0qwgj+1yUxnHJU98rlnYRVBUuWs5IjiHMEbopRgbM5mfA7GrCp5WtvgiWnBdgW3SlVrdeBnkdVXhpA516JuVXhH+MU80x6QpEpKAxFKVp4y0A2MCWnm4sbC8CMhkX3RpY9E1wiiH38BPeEABAA3gbYhaOvKdG9G0Y3WRjWKb7FGQlvTCEhMZG4xIdmx9PCp1VFm41mz2l5pPiE4+WGzMTevKruYi7mfemYvisJuxgXbJWu36Uhw8pc68UFh/XosFdQBCiEHgHCjrCGkR21zIHbSs2MQD9JQO4ydTP1XNhDo4OvLSdxdh9AFXXZBAxf9d8fZCFyQ5YZbtRorGb+tx0+q/7gisW9lHcKvRp/3KkbXvTPNY/4ic23XTRv1dhe1f54u8A0=);whiteSpace=wrap;html=1;fontSize=10;direction=south;" vertex="1" parent="1">
          <mxGeometry x="370" y="340" width="60" height="60" as="geometry" />
        </mxCell>
        <mxCell id="4q3o8-HtlDWTgSXNqdeB-25" style="edgeStyle=orthogonalEdgeStyle;rounded=0;orthogonalLoop=1;jettySize=auto;html=1;entryX=0.14;entryY=0.333;entryDx=0;entryDy=0;entryPerimeter=0;endArrow=none;endFill=0;" edge="1" parent="1" source="4q3o8-HtlDWTgSXNqdeB-21" target="4q3o8-HtlDWTgSXNqdeB-24">
          <mxGeometry relative="1" as="geometry" />
        </mxCell>
        <mxCell id="4q3o8-HtlDWTgSXNqdeB-26" style="edgeStyle=orthogonalEdgeStyle;rounded=0;orthogonalLoop=1;jettySize=auto;html=1;entryX=0.5;entryY=0.15;entryDx=0;entryDy=0;entryPerimeter=0;endArrow=none;endFill=0;" edge="1" parent="1" source="4q3o8-HtlDWTgSXNqdeB-24" target="4q3o8-HtlDWTgSXNqdeB-2">
          <mxGeometry relative="1" as="geometry" />
        </mxCell>
        <mxCell id="4q3o8-HtlDWTgSXNqdeB-27" style="edgeStyle=orthogonalEdgeStyle;rounded=0;orthogonalLoop=1;jettySize=auto;html=1;exitX=1;exitY=0.5;exitDx=0;exitDy=0;exitPerimeter=0;endArrow=none;endFill=0;" edge="1" parent="1" source="4q3o8-HtlDWTgSXNqdeB-29">
          <mxGeometry relative="1" as="geometry">
            <mxPoint x="340" y="650" as="targetPoint" />
          </mxGeometry>
        </mxCell>
        <mxCell id="4q3o8-HtlDWTgSXNqdeB-28" value="&lt;font style=&quot;font-size: 20px;&quot;&gt;d&lt;sub&gt;2&lt;/sub&gt;&lt;/font&gt;" style="edgeLabel;html=1;align=center;verticalAlign=middle;resizable=0;points=[];labelBackgroundColor=none;" vertex="1" connectable="0" parent="4q3o8-HtlDWTgSXNqdeB-27">
          <mxGeometry relative="1" as="geometry">
            <mxPoint y="23" as="offset" />
          </mxGeometry>
        </mxCell>
        <mxCell id="4q3o8-HtlDWTgSXNqdeB-29" value="" style="shape=stencil(rZRRb4MgEMc/yx547KJcNN3j5rbvQZFOUgcGbGu//U6RpaI0nV1iFO7P/bg7TggUtmKNIDSpCLwTStMkwTfOz8Gc2Ubw1hlPzEi2q4VTbGv0QZxl2Y4MqSphZNur8EGSV1zTP1BwrRRCpFZ2olzpCGNSoW/SOdi4/WWcPad57iyEfq6GAMDjkMyX5hFI/h/pbNekk4bpLCOgQEvs4KDYMX74MvqoyrlXVNtrIxYELz9tNjh40+UFPzheWrOXde0a70baDetbciZ4+VufRLSotwrqAbVUV4BsBYEfjYshdU4vnpFOIB0NZBr8nR0EMUCw4C+JTPO4E8FrbeNnsVzy7XSnbEWsv9HdxRjaMtIVeBXG+mlwmzXtYHXX52D4AQ==);whiteSpace=wrap;html=1;fontSize=10;direction=south;" vertex="1" parent="1">
          <mxGeometry x="310" y="570" width="60" height="60" as="geometry" />
        </mxCell>
        <mxCell id="4q3o8-HtlDWTgSXNqdeB-30" style="edgeStyle=orthogonalEdgeStyle;rounded=0;orthogonalLoop=1;jettySize=auto;html=1;entryX=0;entryY=0.666;entryDx=0;entryDy=0;entryPerimeter=0;endArrow=none;endFill=0;" edge="1" parent="1" source="4q3o8-HtlDWTgSXNqdeB-4" target="4q3o8-HtlDWTgSXNqdeB-29">
          <mxGeometry relative="1" as="geometry">
            <Array as="points">
              <mxPoint x="330" y="490" />
            </Array>
          </mxGeometry>
        </mxCell>
        <mxCell id="4q3o8-HtlDWTgSXNqdeB-31" style="edgeStyle=orthogonalEdgeStyle;rounded=0;orthogonalLoop=1;jettySize=auto;html=1;entryX=0;entryY=0.333;entryDx=0;entryDy=0;entryPerimeter=0;endArrow=none;endFill=0;startArrow=oval;startFill=1;" edge="1" parent="1" target="4q3o8-HtlDWTgSXNqdeB-29">
          <mxGeometry relative="1" as="geometry">
            <mxPoint x="400" y="420" as="sourcePoint" />
            <Array as="points">
              <mxPoint x="400" y="420" />
              <mxPoint x="350" y="420" />
            </Array>
          </mxGeometry>
        </mxCell>
        <mxCell id="4q3o8-HtlDWTgSXNqdeB-32" style="edgeStyle=orthogonalEdgeStyle;rounded=0;orthogonalLoop=1;jettySize=auto;html=1;entryX=0;entryY=0.3;entryDx=0;entryDy=0;entryPerimeter=0;endArrow=none;endFill=0;startArrow=oval;startFill=1;" edge="1" parent="1" target="4q3o8-HtlDWTgSXNqdeB-2">
          <mxGeometry relative="1" as="geometry">
            <mxPoint x="330" y="490" as="sourcePoint" />
          </mxGeometry>
        </mxCell>
        <mxCell id="4q3o8-HtlDWTgSXNqdeB-33" value="" style="shape=stencil(pZPZDoIwEEW/pq+mtOLyaFD/o8AojdiSUre/tzCgVmji8kIy9zJnbiZTwpO6EBUQRgvC14QxRt3HlRe/FHUFmUXtLIwUaQno1NboA1xkbjuCVAUYaRuXbwhdkYZBCU8yrZSDSK1qz3nxHUxI5XrpFWF0EuOYW1djVbkJR7BgUI1QJWz7NtIpoak8SUV22Bt9UvmwK+jttIER42HLssSNjOTpf6pEs6uB0dtHfYbnBiI6toBxdE8opQoT4k8Ifobp94C3CLN/I/iA+Q8Rpt8T/AgLD7D8IQL7nNBeYeBQ3KMNnVjbNrjRVsWH3gp3);whiteSpace=wrap;html=1;" vertex="1" parent="1">
          <mxGeometry x="390" y="520" width="20" height="20" as="geometry" />
        </mxCell>
        <mxCell id="4q3o8-HtlDWTgSXNqdeB-34" style="edgeStyle=orthogonalEdgeStyle;rounded=0;orthogonalLoop=1;jettySize=auto;html=1;entryX=0;entryY=0.7;entryDx=0;entryDy=0;entryPerimeter=0;endArrow=none;endFill=0;" edge="1" parent="1" source="4q3o8-HtlDWTgSXNqdeB-33" target="4q3o8-HtlDWTgSXNqdeB-2">
          <mxGeometry relative="1" as="geometry">
            <Array as="points">
              <mxPoint x="400" y="510" />
            </Array>
          </mxGeometry>
        </mxCell>
        <mxCell id="4q3o8-HtlDWTgSXNqdeB-35" value="" style="shape=stencil(pZPZDoIwEEW/pq+mtOLyaFD/o8AojdiSUre/tzCgVmji8kIy9zJnbiZTwpO6EBUQRgvC14QxRt3HlRe/FHUFmUXtLIwUaQno1NboA1xkbjuCVAUYaRuXbwhdkYZBCU8yrZSDSK1qz3nxHUxI5XrpFWF0EuOYW1djVbkJR7BgUI1QJWz7NtIpoak8SUV22Bt9UvmwK+jttIER42HLssSNjOTpf6pEs6uB0dtHfYbnBiI6toBxdE8opQoT4k8Ifobp94C3CLN/I/iA+Q8Rpt8T/AgLD7D8IQL7nNBeYeBQ3KMNnVjbNrjRVsWH3gp3);whiteSpace=wrap;html=1;" vertex="1" parent="1">
          <mxGeometry x="210" y="520" width="20" height="20" as="geometry" />
        </mxCell>
        <mxCell id="4q3o8-HtlDWTgSXNqdeB-36" style="edgeStyle=orthogonalEdgeStyle;rounded=0;orthogonalLoop=1;jettySize=auto;html=1;entryX=0;entryY=0.7;entryDx=0;entryDy=0;entryPerimeter=0;endArrow=none;endFill=0;" edge="1" parent="1" source="4q3o8-HtlDWTgSXNqdeB-35" target="4q3o8-HtlDWTgSXNqdeB-4">
          <mxGeometry relative="1" as="geometry">
            <Array as="points">
              <mxPoint x="220" y="510" />
            </Array>
          </mxGeometry>
        </mxCell>
        <mxCell id="4q3o8-HtlDWTgSXNqdeB-37" value="&lt;font style=&quot;font-size: 15px;&quot;&gt;1&lt;/font&gt;" style="text;html=1;align=center;verticalAlign=middle;resizable=0;points=[];autosize=1;strokeColor=none;fillColor=none;" vertex="1" parent="1">
          <mxGeometry x="200" y="450" width="30" height="30" as="geometry" />
        </mxCell>
        <mxCell id="4q3o8-HtlDWTgSXNqdeB-38" style="edgeStyle=orthogonalEdgeStyle;rounded=0;orthogonalLoop=1;jettySize=auto;html=1;entryX=0;entryY=0.666;entryDx=0;entryDy=0;entryPerimeter=0;endArrow=none;endFill=0;" edge="1" parent="1" source="4q3o8-HtlDWTgSXNqdeB-39" target="4q3o8-HtlDWTgSXNqdeB-52">
          <mxGeometry relative="1" as="geometry">
            <mxPoint x="690" y="550.0000000000002" as="targetPoint" />
            <Array as="points">
              <mxPoint x="690" y="490" />
            </Array>
          </mxGeometry>
        </mxCell>
        <mxCell id="4q3o8-HtlDWTgSXNqdeB-39" value="" style="shape=stencil(rZXhbsIgEMefhq+Gcpu6j6Zz74EVVyKDBjqdb++1tHWz0swCaZrc/Xs/esflIJC7kleCMFoSeCeMZZTiG+3znc1dJYraO0/cSr5TwiuutuYoznJfdwypS2Fl3aiwJXSD3zQP5IXRGiHSaPdH+aUjjEuNsfTHw7rtL521yLxN2MdsBItHQDziJR7xGo9YxiNW8Yh1POLteUSWoJwLwJWgRfvNb5BZf7PElaDbH2U1o8DjrNapsgp0DOToCY0ZyHe8OH5a863346igdjBWPBAGWSrlR+BEXhVvhuNI6OUvcxLB1p6qWA9QUgcBwwh/BjEEdZBVAgb8i1Eo46ZKif5ANfEyC51DGzY6yNbrL8DWcQU=);whiteSpace=wrap;html=1;" vertex="1" parent="1">
          <mxGeometry x="610" y="440" width="60" height="100" as="geometry" />
        </mxCell>
        <mxCell id="4q3o8-HtlDWTgSXNqdeB-42" style="edgeStyle=orthogonalEdgeStyle;rounded=0;orthogonalLoop=1;jettySize=auto;html=1;exitX=1;exitY=0.5;exitDx=0;exitDy=0;exitPerimeter=0;endArrow=none;endFill=0;" edge="1" parent="1" source="4q3o8-HtlDWTgSXNqdeB-44">
          <mxGeometry relative="1" as="geometry">
            <mxPoint x="520" y="650" as="targetPoint" />
          </mxGeometry>
        </mxCell>
        <mxCell id="4q3o8-HtlDWTgSXNqdeB-43" value="&lt;font style=&quot;font-size: 20px;&quot;&gt;d&lt;sub&gt;1&lt;/sub&gt;&lt;/font&gt;" style="edgeLabel;html=1;align=center;verticalAlign=middle;resizable=0;points=[];labelBackgroundColor=none;" vertex="1" connectable="0" parent="4q3o8-HtlDWTgSXNqdeB-42">
          <mxGeometry relative="1" as="geometry">
            <mxPoint y="23" as="offset" />
          </mxGeometry>
        </mxCell>
        <mxCell id="4q3o8-HtlDWTgSXNqdeB-44" value="" style="shape=stencil(rZRRb4MgEMc/yx547KJcNN3j5rbvQZFOUgcGbGu//U6RpaI0nV1iFO7P/bg7TggUtmKNIDSpCLwTStMkwTfOz8Gc2Ubw1hlPzEi2q4VTbGv0QZxl2Y4MqSphZNur8EGSV1zTP1BwrRRCpFZ2olzpCGNSoW/SOdi4/WWcPad57iyEfq6GAMDjkMyX5hFI/h/pbNekk4bpLCOgQEvs4KDYMX74MvqoyrlXVNtrIxYELz9tNjh40+UFPzheWrOXde0a70baDetbciZ4+VufRLSotwrqAbVUV4BsBYEfjYshdU4vnpFOIB0NZBr8nR0EMUCw4C+JTPO4E8FrbeNnsVzy7XSnbEWsv9HdxRjaMtIVeBXG+mlwmzXtYHXX52D4AQ==);whiteSpace=wrap;html=1;fontSize=10;direction=south;" vertex="1" parent="1">
          <mxGeometry x="490" y="570" width="60" height="60" as="geometry" />
        </mxCell>
        <mxCell id="4q3o8-HtlDWTgSXNqdeB-45" style="edgeStyle=orthogonalEdgeStyle;rounded=0;orthogonalLoop=1;jettySize=auto;html=1;entryX=0;entryY=0.3;entryDx=0;entryDy=0;entryPerimeter=0;endArrow=none;endFill=0;startArrow=oval;startFill=1;" edge="1" parent="1" target="4q3o8-HtlDWTgSXNqdeB-39">
          <mxGeometry relative="1" as="geometry">
            <mxPoint x="510" y="490" as="sourcePoint" />
          </mxGeometry>
        </mxCell>
        <mxCell id="4q3o8-HtlDWTgSXNqdeB-46" value="" style="shape=stencil(pZPZDoIwEEW/pq+mtOLyaFD/o8AojdiSUre/tzCgVmji8kIy9zJnbiZTwpO6EBUQRgvC14QxRt3HlRe/FHUFmUXtLIwUaQno1NboA1xkbjuCVAUYaRuXbwhdkYZBCU8yrZSDSK1qz3nxHUxI5XrpFWF0EuOYW1djVbkJR7BgUI1QJWz7NtIpoak8SUV22Bt9UvmwK+jttIER42HLssSNjOTpf6pEs6uB0dtHfYbnBiI6toBxdE8opQoT4k8Ifobp94C3CLN/I/iA+Q8Rpt8T/AgLD7D8IQL7nNBeYeBQ3KMNnVjbNrjRVsWH3gp3);whiteSpace=wrap;html=1;" vertex="1" parent="1">
          <mxGeometry x="570" y="520" width="20" height="20" as="geometry" />
        </mxCell>
        <mxCell id="4q3o8-HtlDWTgSXNqdeB-47" style="edgeStyle=orthogonalEdgeStyle;rounded=0;orthogonalLoop=1;jettySize=auto;html=1;entryX=0;entryY=0.7;entryDx=0;entryDy=0;entryPerimeter=0;endArrow=none;endFill=0;" edge="1" parent="1" source="4q3o8-HtlDWTgSXNqdeB-46">
          <mxGeometry relative="1" as="geometry">
            <mxPoint x="610" y="515" as="targetPoint" />
            <Array as="points">
              <mxPoint x="580" y="510" />
              <mxPoint x="610" y="510" />
            </Array>
          </mxGeometry>
        </mxCell>
        <mxCell id="4q3o8-HtlDWTgSXNqdeB-50" style="edgeStyle=orthogonalEdgeStyle;rounded=0;orthogonalLoop=1;jettySize=auto;html=1;exitX=1;exitY=0.5;exitDx=0;exitDy=0;exitPerimeter=0;endArrow=none;endFill=0;" edge="1" parent="1" source="4q3o8-HtlDWTgSXNqdeB-52">
          <mxGeometry relative="1" as="geometry">
            <mxPoint x="700" y="650" as="targetPoint" />
          </mxGeometry>
        </mxCell>
        <mxCell id="4q3o8-HtlDWTgSXNqdeB-51" value="&lt;font style=&quot;font-size: 20px;&quot;&gt;d&lt;sub&gt;0&lt;/sub&gt;&lt;/font&gt;" style="edgeLabel;html=1;align=center;verticalAlign=middle;resizable=0;points=[];labelBackgroundColor=none;" vertex="1" connectable="0" parent="4q3o8-HtlDWTgSXNqdeB-50">
          <mxGeometry relative="1" as="geometry">
            <mxPoint y="23" as="offset" />
          </mxGeometry>
        </mxCell>
        <mxCell id="4q3o8-HtlDWTgSXNqdeB-52" value="" style="shape=stencil(rZRRb4MgEMc/yx547KJcNN3j5rbvQZFOUgcGbGu//U6RpaI0nV1iFO7P/bg7TggUtmKNIDSpCLwTStMkwTfOz8Gc2Ubw1hlPzEi2q4VTbGv0QZxl2Y4MqSphZNur8EGSV1zTP1BwrRRCpFZ2olzpCGNSoW/SOdi4/WWcPad57iyEfq6GAMDjkMyX5hFI/h/pbNekk4bpLCOgQEvs4KDYMX74MvqoyrlXVNtrIxYELz9tNjh40+UFPzheWrOXde0a70baDetbciZ4+VufRLSotwrqAbVUV4BsBYEfjYshdU4vnpFOIB0NZBr8nR0EMUCw4C+JTPO4E8FrbeNnsVzy7XSnbEWsv9HdxRjaMtIVeBXG+mlwmzXtYHXX52D4AQ==);whiteSpace=wrap;html=1;fontSize=10;direction=south;" vertex="1" parent="1">
          <mxGeometry x="670" y="570" width="60" height="60" as="geometry" />
        </mxCell>
        <mxCell id="4q3o8-HtlDWTgSXNqdeB-53" value="1" style="text;strokeColor=none;align=center;fillColor=none;html=1;verticalAlign=middle;whiteSpace=wrap;rounded=0;" vertex="1" parent="1">
          <mxGeometry x="250" y="450" width="20" height="30" as="geometry" />
        </mxCell>
        <mxCell id="4q3o8-HtlDWTgSXNqdeB-54" value="0" style="text;strokeColor=none;align=center;fillColor=none;html=1;verticalAlign=middle;whiteSpace=wrap;rounded=0;" vertex="1" parent="1">
          <mxGeometry x="250" y="500" width="20" height="30" as="geometry" />
        </mxCell>
        <mxCell id="4q3o8-HtlDWTgSXNqdeB-55" value="1" style="text;strokeColor=none;align=center;fillColor=none;html=1;verticalAlign=middle;whiteSpace=wrap;rounded=0;" vertex="1" parent="1">
          <mxGeometry x="430" y="450" width="20" height="30" as="geometry" />
        </mxCell>
        <mxCell id="4q3o8-HtlDWTgSXNqdeB-56" value="0" style="text;strokeColor=none;align=center;fillColor=none;html=1;verticalAlign=middle;whiteSpace=wrap;rounded=0;" vertex="1" parent="1">
          <mxGeometry x="430" y="500" width="20" height="30" as="geometry" />
        </mxCell>
        <mxCell id="4q3o8-HtlDWTgSXNqdeB-57" value="0" style="text;strokeColor=none;align=center;fillColor=none;html=1;verticalAlign=middle;whiteSpace=wrap;rounded=0;" vertex="1" parent="1">
          <mxGeometry x="610" y="500" width="20" height="30" as="geometry" />
        </mxCell>
        <mxCell id="4q3o8-HtlDWTgSXNqdeB-58" value="1" style="text;strokeColor=none;align=center;fillColor=none;html=1;verticalAlign=middle;whiteSpace=wrap;rounded=0;" vertex="1" parent="1">
          <mxGeometry x="610" y="450" width="20" height="30" as="geometry" />
        </mxCell>
        <mxCell id="4q3o8-HtlDWTgSXNqdeB-59" style="edgeStyle=orthogonalEdgeStyle;rounded=0;orthogonalLoop=1;jettySize=auto;html=1;exitX=0;exitY=0.666;exitDx=0;exitDy=0;exitPerimeter=0;endArrow=none;endFill=0;" edge="1" parent="1" source="4q3o8-HtlDWTgSXNqdeB-63">
          <mxGeometry relative="1" as="geometry">
            <mxPoint x="600.047619047619" y="200" as="targetPoint" />
          </mxGeometry>
        </mxCell>
        <mxCell id="4q3o8-HtlDWTgSXNqdeB-60" value="a&lt;sub&gt;0&lt;/sub&gt;" style="edgeLabel;html=1;align=center;verticalAlign=middle;resizable=0;points=[];fontSize=20;labelBackgroundColor=none;" vertex="1" connectable="0" parent="4q3o8-HtlDWTgSXNqdeB-59">
          <mxGeometry relative="1" as="geometry">
            <mxPoint x="-3" y="-34" as="offset" />
          </mxGeometry>
        </mxCell>
        <mxCell id="4q3o8-HtlDWTgSXNqdeB-61" style="edgeStyle=orthogonalEdgeStyle;rounded=0;orthogonalLoop=1;jettySize=auto;html=1;exitX=0;exitY=0.333;exitDx=0;exitDy=0;exitPerimeter=0;endArrow=none;endFill=0;" edge="1" parent="1" source="4q3o8-HtlDWTgSXNqdeB-63">
          <mxGeometry relative="1" as="geometry">
            <mxPoint x="620.047619047619" y="200" as="targetPoint" />
          </mxGeometry>
        </mxCell>
        <mxCell id="4q3o8-HtlDWTgSXNqdeB-62" value="a&lt;sub&gt;-1&lt;/sub&gt;" style="edgeLabel;html=1;align=center;verticalAlign=middle;resizable=0;points=[];fontSize=20;labelBackgroundColor=none;" vertex="1" connectable="0" parent="4q3o8-HtlDWTgSXNqdeB-61">
          <mxGeometry relative="1" as="geometry">
            <mxPoint x="3" y="-34" as="offset" />
          </mxGeometry>
        </mxCell>
        <mxCell id="4q3o8-HtlDWTgSXNqdeB-63" value="" style="shape=stencil(rZRRb4MgEMc/yx547KJcNN3j5rbvQZFOUgcGbGu//U6RpaI0nV1iFO7P/bg7TggUtmKNIDSpCLwTStMkwTfOz8Gc2Ubw1hlPzEi2q4VTbGv0QZxl2Y4MqSphZNur8EGSV1zTP1BwrRRCpFZ2olzpCGNSoW/SOdi4/WWcPad57iyEfq6GAMDjkMyX5hFI/h/pbNekk4bpLCOgQEvs4KDYMX74MvqoyrlXVNtrIxYELz9tNjh40+UFPzheWrOXde0a70baDetbciZ4+VufRLSotwrqAbVUV4BsBYEfjYshdU4vnpFOIB0NZBr8nR0EMUCw4C+JTPO4E8FrbeNnsVzy7XSnbEWsv9HdxRjaMtIVeBXG+mlwmzXtYHXX52D4AQ==);whiteSpace=wrap;html=1;fontSize=10;direction=south;" vertex="1" parent="1">
          <mxGeometry x="580" y="240" width="60" height="60" as="geometry" />
        </mxCell>
        <mxCell id="4q3o8-HtlDWTgSXNqdeB-64" style="edgeStyle=orthogonalEdgeStyle;rounded=0;orthogonalLoop=1;jettySize=auto;html=1;exitX=0.14;exitY=0.666;exitDx=0;exitDy=0;exitPerimeter=0;endArrow=none;endFill=0;" edge="1" parent="1" source="4q3o8-HtlDWTgSXNqdeB-66">
          <mxGeometry relative="1" as="geometry">
            <mxPoint x="550" y="200" as="targetPoint" />
            <Array as="points">
              <mxPoint x="570" y="320" />
              <mxPoint x="550" y="320" />
              <mxPoint x="550" y="200" />
            </Array>
          </mxGeometry>
        </mxCell>
        <mxCell id="4q3o8-HtlDWTgSXNqdeB-65" value="&lt;div style=&quot;font-size: 20px;&quot;&gt;a&lt;sub&gt;1&lt;/sub&gt;&lt;/div&gt;" style="edgeLabel;html=1;align=center;verticalAlign=middle;resizable=0;points=[];fontSize=20;labelBackgroundColor=none;" vertex="1" connectable="0" parent="4q3o8-HtlDWTgSXNqdeB-64">
          <mxGeometry relative="1" as="geometry">
            <mxPoint y="-98" as="offset" />
          </mxGeometry>
        </mxCell>
        <mxCell id="4q3o8-HtlDWTgSXNqdeB-66" value="" style="shape=stencil(vZXdcoMgEIWfpRdcpgNsY71tbfseREllYsFBk5i3L0qwgj+1yUxnHJU98rlnYRVBUuWs5IjiHMEbopRgbM5mfA7GrCp5WtvgiWnBdgW3SlVrdeBnkdVXhpA516JuVXhH+MU80x6QpEpKAxFKVp4y0A2MCWnm4sbC8CMhkX3RpY9E1wiiH38BPeEABAA3gbYhaOvKdG9G0Y3WRjWKb7FGQlvTCEhMZG4xIdmx9PCp1VFm41mz2l5pPiE4+WGzMTevKruYi7mfemYvisJuxgXbJWu36Uhw8pc68UFh/XosFdQBCiEHgHCjrCGkR21zIHbSs2MQD9JQO4ydTP1XNhDo4OvLSdxdh9AFXXZBAxf9d8fZCFyQ5YZbtRorGb+tx0+q/7gisW9lHcKvRp/3KkbXvTPNY/4ic23XTRv1dhe1f54u8A0=);whiteSpace=wrap;html=1;fontSize=10;direction=south;" vertex="1" parent="1">
          <mxGeometry x="550" y="340" width="60" height="60" as="geometry" />
        </mxCell>
        <mxCell id="4q3o8-HtlDWTgSXNqdeB-67" style="edgeStyle=orthogonalEdgeStyle;rounded=0;orthogonalLoop=1;jettySize=auto;html=1;entryX=0.14;entryY=0.333;entryDx=0;entryDy=0;entryPerimeter=0;endArrow=none;endFill=0;" edge="1" parent="1" source="4q3o8-HtlDWTgSXNqdeB-63" target="4q3o8-HtlDWTgSXNqdeB-66">
          <mxGeometry relative="1" as="geometry" />
        </mxCell>
        <mxCell id="4q3o8-HtlDWTgSXNqdeB-68" style="edgeStyle=orthogonalEdgeStyle;rounded=0;orthogonalLoop=1;jettySize=auto;html=1;entryX=0.5;entryY=0.15;entryDx=0;entryDy=0;entryPerimeter=0;endArrow=none;endFill=0;" edge="1" parent="1" source="4q3o8-HtlDWTgSXNqdeB-66" target="4q3o8-HtlDWTgSXNqdeB-39">
          <mxGeometry relative="1" as="geometry" />
        </mxCell>
        <mxCell id="4q3o8-HtlDWTgSXNqdeB-69" style="edgeStyle=orthogonalEdgeStyle;rounded=0;orthogonalLoop=1;jettySize=auto;html=1;entryX=0;entryY=0.333;entryDx=0;entryDy=0;entryPerimeter=0;startArrow=oval;startFill=1;endArrow=none;endFill=0;" edge="1" parent="1" target="4q3o8-HtlDWTgSXNqdeB-44">
          <mxGeometry relative="1" as="geometry">
            <mxPoint x="580" y="420" as="sourcePoint" />
            <Array as="points">
              <mxPoint x="590" y="420" />
              <mxPoint x="530" y="420" />
            </Array>
          </mxGeometry>
        </mxCell>
        <mxCell id="4q3o8-HtlDWTgSXNqdeB-70" style="edgeStyle=orthogonalEdgeStyle;rounded=0;orthogonalLoop=1;jettySize=auto;html=1;exitX=0;exitY=0.666;exitDx=0;exitDy=0;exitPerimeter=0;endArrow=none;endFill=0;" edge="1" parent="1" source="4q3o8-HtlDWTgSXNqdeB-74">
          <mxGeometry relative="1" as="geometry">
            <mxPoint x="780.047619047619" y="200" as="targetPoint" />
          </mxGeometry>
        </mxCell>
        <mxCell id="4q3o8-HtlDWTgSXNqdeB-71" value="a&lt;sub&gt;-1&lt;/sub&gt;" style="edgeLabel;html=1;align=center;verticalAlign=middle;resizable=0;points=[];fontSize=20;labelBackgroundColor=none;" vertex="1" connectable="0" parent="4q3o8-HtlDWTgSXNqdeB-70">
          <mxGeometry relative="1" as="geometry">
            <mxPoint x="-3" y="-34" as="offset" />
          </mxGeometry>
        </mxCell>
        <mxCell id="4q3o8-HtlDWTgSXNqdeB-72" style="edgeStyle=orthogonalEdgeStyle;rounded=0;orthogonalLoop=1;jettySize=auto;html=1;exitX=0;exitY=0.333;exitDx=0;exitDy=0;exitPerimeter=0;endArrow=none;endFill=0;" edge="1" parent="1" source="4q3o8-HtlDWTgSXNqdeB-74">
          <mxGeometry relative="1" as="geometry">
            <mxPoint x="800.047619047619" y="200" as="targetPoint" />
          </mxGeometry>
        </mxCell>
        <mxCell id="4q3o8-HtlDWTgSXNqdeB-73" value="a&lt;sub&gt;-2&lt;/sub&gt;" style="edgeLabel;html=1;align=center;verticalAlign=middle;resizable=0;points=[];fontSize=20;labelBackgroundColor=none;" vertex="1" connectable="0" parent="4q3o8-HtlDWTgSXNqdeB-72">
          <mxGeometry relative="1" as="geometry">
            <mxPoint x="3" y="-34" as="offset" />
          </mxGeometry>
        </mxCell>
        <mxCell id="4q3o8-HtlDWTgSXNqdeB-74" value="" style="shape=stencil(rZRRb4MgEMc/yx547KJcNN3j5rbvQZFOUgcGbGu//U6RpaI0nV1iFO7P/bg7TggUtmKNIDSpCLwTStMkwTfOz8Gc2Ubw1hlPzEi2q4VTbGv0QZxl2Y4MqSphZNur8EGSV1zTP1BwrRRCpFZ2olzpCGNSoW/SOdi4/WWcPad57iyEfq6GAMDjkMyX5hFI/h/pbNekk4bpLCOgQEvs4KDYMX74MvqoyrlXVNtrIxYELz9tNjh40+UFPzheWrOXde0a70baDetbciZ4+VufRLSotwrqAbVUV4BsBYEfjYshdU4vnpFOIB0NZBr8nR0EMUCw4C+JTPO4E8FrbeNnsVzy7XSnbEWsv9HdxRjaMtIVeBXG+mlwmzXtYHXX52D4AQ==);whiteSpace=wrap;html=1;fontSize=10;direction=south;" vertex="1" parent="1">
          <mxGeometry x="760" y="240" width="60" height="60" as="geometry" />
        </mxCell>
        <mxCell id="4q3o8-HtlDWTgSXNqdeB-75" style="edgeStyle=orthogonalEdgeStyle;rounded=0;orthogonalLoop=1;jettySize=auto;html=1;exitX=0.14;exitY=0.666;exitDx=0;exitDy=0;exitPerimeter=0;endArrow=none;endFill=0;" edge="1" parent="1" source="4q3o8-HtlDWTgSXNqdeB-77">
          <mxGeometry relative="1" as="geometry">
            <mxPoint x="730" y="200" as="targetPoint" />
            <Array as="points">
              <mxPoint x="750" y="320" />
              <mxPoint x="730" y="320" />
              <mxPoint x="730" y="200" />
            </Array>
          </mxGeometry>
        </mxCell>
        <mxCell id="4q3o8-HtlDWTgSXNqdeB-76" value="&lt;div style=&quot;font-size: 20px;&quot;&gt;a&lt;sub&gt;2&lt;/sub&gt;&lt;/div&gt;" style="edgeLabel;html=1;align=center;verticalAlign=middle;resizable=0;points=[];fontSize=20;labelBackgroundColor=none;" vertex="1" connectable="0" parent="4q3o8-HtlDWTgSXNqdeB-75">
          <mxGeometry relative="1" as="geometry">
            <mxPoint y="-98" as="offset" />
          </mxGeometry>
        </mxCell>
        <mxCell id="4q3o8-HtlDWTgSXNqdeB-77" value="" style="shape=stencil(vZXdcoMgEIWfpRdcpgNsY71tbfseREllYsFBk5i3L0qwgj+1yUxnHJU98rlnYRVBUuWs5IjiHMEbopRgbM5mfA7GrCp5WtvgiWnBdgW3SlVrdeBnkdVXhpA516JuVXhH+MU80x6QpEpKAxFKVp4y0A2MCWnm4sbC8CMhkX3RpY9E1wiiH38BPeEABAA3gbYhaOvKdG9G0Y3WRjWKb7FGQlvTCEhMZG4xIdmx9PCp1VFm41mz2l5pPiE4+WGzMTevKruYi7mfemYvisJuxgXbJWu36Uhw8pc68UFh/XosFdQBCiEHgHCjrCGkR21zIHbSs2MQD9JQO4ydTP1XNhDo4OvLSdxdh9AFXXZBAxf9d8fZCFyQ5YZbtRorGb+tx0+q/7gisW9lHcKvRp/3KkbXvTPNY/4ic23XTRv1dhe1f54u8A0=);whiteSpace=wrap;html=1;fontSize=10;direction=south;" vertex="1" parent="1">
          <mxGeometry x="730" y="340" width="60" height="60" as="geometry" />
        </mxCell>
        <mxCell id="4q3o8-HtlDWTgSXNqdeB-78" style="edgeStyle=orthogonalEdgeStyle;rounded=0;orthogonalLoop=1;jettySize=auto;html=1;entryX=0.14;entryY=0.333;entryDx=0;entryDy=0;entryPerimeter=0;endArrow=none;endFill=0;" edge="1" parent="1" source="4q3o8-HtlDWTgSXNqdeB-74" target="4q3o8-HtlDWTgSXNqdeB-77">
          <mxGeometry relative="1" as="geometry" />
        </mxCell>
        <mxCell id="4q3o8-HtlDWTgSXNqdeB-79" style="edgeStyle=orthogonalEdgeStyle;rounded=0;orthogonalLoop=1;jettySize=auto;html=1;entryX=0;entryY=0.333;entryDx=0;entryDy=0;entryPerimeter=0;endArrow=none;endFill=0;" edge="1" parent="1" source="4q3o8-HtlDWTgSXNqdeB-77" target="4q3o8-HtlDWTgSXNqdeB-52">
          <mxGeometry relative="1" as="geometry">
            <Array as="points">
              <mxPoint x="760" y="420" />
              <mxPoint x="710" y="420" />
            </Array>
          </mxGeometry>
        </mxCell>
      </root>
    </mxGraphModel>
  </diagram>
</mxfile>
